<?xml version="1.0" encoding="UTF-8"?>
<svg xmlns="http://www.w3.org/2000/svg" xmlns:xlink="http://www.w3.org/1999/xlink" width="36px" height="40px" viewBox="0 0 36 40" version="1.1">
<g id="surface1">
<path style=" stroke:none;fill-rule:nonzero;fill:rgb(0%,0%,0%);fill-opacity:1;" d="M 29.441406 39.992188 L 35.992188 33.980469 L 34.996094 32.917969 L 32.386719 35.332031 C 29.289062 32.847656 25.804688 31.609375 21.933594 31.609375 C 20 31.609375 17.582031 32.046875 14.679688 32.917969 L 15.671875 32.058594 C 19.101562 29.195312 21.425781 26.785156 22.640625 24.820312 C 23.828125 22.886719 24.421875 20.472656 24.421875 17.582031 C 24.421875 16.492188 24.214844 13.984375 23.800781 10.058594 C 23.636719 8.421875 23.550781 7.46875 23.550781 7.195312 C 23.550781 5.398438 24.035156 4.0625 25.003906 3.1875 C 25.972656 2.316406 27.574219 1.757812 29.8125 1.511719 L 29.191406 0.164062 L 28.527344 0.164062 C 25.292969 0.164062 22.773438 1.007812 20.960938 2.699219 C 19.152344 4.390625 18.246094 6.761719 18.246094 9.8125 C 18.246094 10.195312 18.253906 10.558594 18.265625 10.898438 C 18.28125 11.238281 18.300781 11.585938 18.328125 11.941406 L 18.617188 15.007812 C 18.757812 16.398438 18.859375 17.472656 18.929688 18.238281 C 19 19 19.035156 19.492188 19.035156 19.710938 C 19.035156 25.515625 16.324219 30.230469 10.90625 33.859375 C 12.703125 31.40625 13.988281 29.183594 14.761719 27.191406 C 15.507812 25.285156 15.882812 23.160156 15.882812 20.8125 C 15.882812 19.75 15.839844 18.625 15.757812 17.441406 C 15.675781 16.253906 15.5625 15.007812 15.425781 13.699219 C 15.175781 11.382812 15.050781 9.976562 15.050781 9.488281 C 15.050781 7.660156 15.398438 6.160156 16.089844 4.988281 C 16.835938 3.761719 18.164062 2.441406 20.070312 1.023438 L 19.53125 0.164062 C 17.347656 1.253906 15.605469 1.796875 14.304688 1.796875 C 13.53125 1.796875 12.34375 1.511719 10.738281 0.941406 C 8.777344 0.3125 7.351562 0 6.46875 0 C 4.726562 0 3.21875 0.625 1.949219 1.878906 C 0.648438 3.109375 0 4.550781 0 6.214844 C 0 6.789062 0.164062 7.566406 0.496094 8.546875 L 1.535156 8.097656 C 1.449219 7.414062 1.410156 7.046875 1.410156 6.992188 C 1.410156 6.175781 1.652344 5.511719 2.136719 5.007812 C 2.621094 4.503906 3.277344 4.253906 4.105469 4.253906 C 4.796875 4.253906 5.640625 4.429688 6.632812 4.785156 C 7.878906 5.21875 8.914062 5.4375 9.742188 5.4375 C 10.988281 5.4375 12.632812 5.164062 14.679688 4.621094 C 12.855469 6.335938 11.609375 7.90625 10.949219 9.324219 C 10.285156 10.769531 9.953125 12.621094 9.953125 14.882812 C 9.953125 15.019531 9.953125 15.15625 9.953125 15.292969 C 9.953125 15.429688 9.964844 15.578125 9.992188 15.742188 C 10.074219 16.207031 10.117188 16.558594 10.117188 16.804688 C 9.371094 16.617188 8.695312 16.519531 8.085938 16.519531 C 6.289062 16.519531 4.644531 17.40625 3.152344 19.179688 L 3.898438 19.789062 C 4.644531 19.21875 5.5 18.933594 6.46875 18.933594 C 9.261719 18.933594 10.683594 20.675781 10.738281 24.167969 C 9.691406 23.511719 8.734375 23.183594 7.878906 23.183594 C 6.800781 23.183594 5.722656 23.785156 4.644531 24.984375 L 5.183594 25.597656 C 5.761719 25.378906 6.289062 25.269531 6.757812 25.269531 C 7.257812 25.269531 7.726562 25.371094 8.167969 25.578125 C 8.613281 25.78125 9 26.070312 9.332031 26.4375 C 9.660156 26.804688 9.925781 27.226562 10.117188 27.703125 C 10.3125 28.179688 10.410156 28.691406 10.410156 29.238281 C 10.410156 32.398438 7.753906 35.617188 2.445312 38.886719 L 3.152344 39.992188 C 8.320312 37.183594 13.074219 35.78125 17.417969 35.78125 C 21.671875 35.78125 25.679688 37.183594 29.441406 39.992188 Z M 29.441406 39.992188 "/>
</g>
</svg>
