<?xml version="1.0" encoding="UTF-8"?>
<svg xmlns="http://www.w3.org/2000/svg" xmlns:xlink="http://www.w3.org/1999/xlink" width="14px" height="16px" viewBox="0 0 14 15" version="1.1">
<g id="surface1">
<path style=" stroke:none;fill-rule:nonzero;fill:rgb(0%,0%,0%);fill-opacity:1;" d="M 11.449219 14.996094 L 13.996094 12.742188 L 13.609375 12.34375 L 12.59375 13.25 C 11.390625 12.320312 10.035156 11.851562 8.53125 11.851562 C 7.777344 11.851562 6.835938 12.015625 5.707031 12.34375 L 6.09375 12.023438 C 7.429688 10.949219 8.332031 10.042969 8.804688 9.308594 C 9.265625 8.582031 9.496094 7.675781 9.496094 6.59375 C 9.496094 6.183594 9.417969 5.246094 9.257812 3.773438 C 9.191406 3.160156 9.160156 2.800781 9.160156 2.699219 C 9.160156 2.023438 9.347656 1.523438 9.722656 1.195312 C 10.101562 0.867188 10.722656 0.660156 11.59375 0.566406 L 11.351562 0.0625 L 11.09375 0.0625 C 9.835938 0.0625 8.855469 0.378906 8.152344 1.011719 C 7.449219 1.644531 7.09375 2.535156 7.09375 3.679688 C 7.09375 3.824219 7.097656 3.957031 7.101562 4.085938 C 7.109375 4.214844 7.117188 4.34375 7.128906 4.476562 L 7.242188 5.628906 C 7.292969 6.148438 7.335938 6.554688 7.363281 6.839844 C 7.386719 7.125 7.402344 7.308594 7.402344 7.390625 C 7.402344 9.570312 6.347656 11.335938 4.242188 12.695312 C 4.941406 11.777344 5.441406 10.945312 5.742188 10.195312 C 6.03125 9.480469 6.175781 8.683594 6.175781 7.804688 C 6.175781 7.40625 6.160156 6.984375 6.128906 6.539062 C 6.09375 6.09375 6.050781 5.628906 6 5.136719 C 5.902344 4.269531 5.855469 3.742188 5.855469 3.558594 C 5.855469 2.871094 5.988281 2.308594 6.257812 1.871094 C 6.546875 1.410156 7.0625 0.914062 7.804688 0.382812 L 7.59375 0.0625 C 6.746094 0.46875 6.070312 0.675781 5.5625 0.675781 C 5.261719 0.675781 4.800781 0.566406 4.175781 0.351562 C 3.414062 0.117188 2.859375 0 2.515625 0 C 1.839844 0 1.253906 0.234375 0.757812 0.707031 C 0.253906 1.164062 0 1.707031 0 2.332031 C 0 2.546875 0.0664062 2.835938 0.195312 3.203125 L 0.597656 3.035156 C 0.5625 2.78125 0.546875 2.644531 0.546875 2.621094 C 0.546875 2.316406 0.640625 2.066406 0.832031 1.878906 C 1.019531 1.6875 1.273438 1.59375 1.597656 1.59375 C 1.863281 1.59375 2.191406 1.660156 2.582031 1.792969 C 3.0625 1.957031 3.464844 2.039062 3.789062 2.039062 C 4.273438 2.039062 4.914062 1.9375 5.707031 1.734375 C 5 2.375 4.515625 2.964844 4.257812 3.496094 C 4 4.039062 3.871094 4.734375 3.871094 5.582031 C 3.871094 5.632812 3.871094 5.683594 3.871094 5.734375 C 3.871094 5.785156 3.875 5.84375 3.886719 5.902344 C 3.917969 6.078125 3.933594 6.210938 3.933594 6.300781 C 3.644531 6.230469 3.382812 6.195312 3.144531 6.195312 C 2.445312 6.195312 1.804688 6.527344 1.226562 7.191406 L 1.515625 7.421875 C 1.804688 7.207031 2.140625 7.101562 2.515625 7.101562 C 3.601562 7.101562 4.15625 7.753906 4.175781 9.0625 C 3.769531 8.816406 3.398438 8.695312 3.0625 8.695312 C 2.644531 8.695312 2.226562 8.917969 1.804688 9.371094 L 2.015625 9.597656 C 2.242188 9.515625 2.445312 9.476562 2.628906 9.476562 C 2.820312 9.476562 3.003906 9.515625 3.175781 9.589844 C 3.347656 9.667969 3.5 9.777344 3.628906 9.914062 C 3.757812 10.050781 3.859375 10.210938 3.933594 10.390625 C 4.011719 10.566406 4.046875 10.757812 4.046875 10.964844 C 4.046875 12.148438 3.015625 13.355469 0.953125 14.582031 L 1.226562 14.996094 C 3.234375 13.945312 5.085938 13.417969 6.773438 13.417969 C 8.429688 13.417969 9.988281 13.945312 11.449219 14.996094 Z M 11.449219 14.996094 "/>
</g>
</svg>
